<?xml version="1.0" standalone="no"?><svg xmlns:xlink="http://www.w3.org/1999/xlink" xmlns="http://www.w3.org/2000/svg" viewBox="0 0 1000 583.3333333333333" preserveAspectRatio="xMaxYMax slice"><g transform="scale(1.24750499001996)"><rect x="0" y="0" width="801.5999999999999" height="534.4" fill="#ffffff"/><path d="M 0 66.8 A 66.8 66.8 0 0 1  66.8 0 L 0 66.8 A 66.8 66.8 0 0 0 66.8 0" fill="#b9dcfe"/><path d="M 133.6 0 A 66.8 66.8 0 0 1  200.39999999999998 66.8 L 133.6 0 A 66.8 66.8 0 0 0 200.39999999999998 66.8" fill="#9ecefe"/><rect x="334" y="0" width="66.8" height="66.8" fill="#ffffff"/><path d="M 534.4 0 A 66.8 66.8 0 0 1  601.1999999999999 66.8 L 534.4 0 A 66.8 66.8 0 0 0 601.1999999999999 66.8" fill="#d6c3e8"/><rect x="668" y="0" width="66.8" height="66.8" fill="#ffffff"/><path d="M 668 0 A 33.4 33.4 0 0 1  701.4 33.4 L 668 0 A 33.4 33.4 0 0 0 701.4 33.4" fill="#daecff"/><path d="M 668 66.8 A 33.4 33.4 0 0 1  701.4 33.4 L 668 66.8 A 33.4 33.4 0 0 0 701.4 33.4" fill="#e6dbf1"/><rect x="133.6" y="66.8" width="66.8" height="66.8" fill="#ffffff"/><path d="M 167 66.8 A 33.4 33.4 0 0 1  200.4 100.19999999999999 L 167 66.8 A 33.4 33.4 0 0 0 200.4 100.19999999999999" fill="#ecf6ff"/><path d="M 133.6 100.2 A 33.4 33.4 0 0 1  167 133.6 L 133.6 100.2 A 33.4 33.4 0 0 0 167 133.6" fill="#dacaeb"/><path d="M 200.4 66.8 A 66.8 66.8 0 0 1  267.2 133.6 L 200.4 66.8 A 66.8 66.8 0 0 0 267.2 133.6" fill="#ab85d1"/><rect x="334" y="66.8" width="66.8" height="66.8" fill="#ffffff"/><path d="M 334 66.8 A 33.4 33.4 0 0 1  367.4 100.19999999999999 L 334 66.8 A 33.4 33.4 0 0 0 367.4 100.19999999999999" fill="#f3eef8"/><path d="M 400.8 133.6 A 66.8 66.8 0 0 1  467.6 66.8 L 400.8 133.6 A 66.8 66.8 0 0 0 467.6 66.8" fill="#aa84d0"/><rect x="601.1999999999999" y="66.8" width="66.8" height="66.8" fill="#ffffff"/><path d="M 634.6 100.2 A 33.4 33.4 0 0 1  668 133.6 L 634.6 100.2 A 33.4 33.4 0 0 0 668 133.6" fill="#7ebefe"/><path d="M 668 133.6 A 66.8 66.8 0 0 1  734.8 66.8 L 668 133.6 A 66.8 66.8 0 0 0 734.8 66.8" fill="#f2ecf8"/><rect x="734.8" y="66.8" width="66.8" height="66.8" fill="#ffffff"/><path d="M 734.8 133.6 A 33.4 33.4 0 0 1  768.1999999999999 100.2 L 734.8 133.6 A 33.4 33.4 0 0 0 768.1999999999999 100.2" fill="#d6eaff"/><path d="M 768.2 133.6 A 33.4 33.4 0 0 1  801.6 100.2 L 768.2 133.6 A 33.4 33.4 0 0 0 801.6 100.2" fill="#7fbefe"/><path d="M 133.6 200.39999999999998 A 66.8 66.8 0 0 1  200.39999999999998 133.6 L 133.6 200.39999999999998 A 66.8 66.8 0 0 0 200.39999999999998 133.6" fill="#c7ade0"/><path d="M 200.4 133.6 A 66.8 66.8 0 0 1  267.2 200.39999999999998 L 200.4 133.6 A 66.8 66.8 0 0 0 267.2 200.39999999999998" fill="#acd5fe"/><rect x="400.79999999999995" y="133.6" width="66.8" height="66.8" fill="#ffffff"/><path d="M 400.8 200.4 A 33.4 33.4 0 0 1  434.2 167 L 400.8 200.4 A 33.4 33.4 0 0 0 434.2 167" fill="#dac9ea"/><rect x="601.1999999999999" y="133.6" width="66.8" height="66.8" fill="#ffffff"/><path d="M 601.2 133.6 A 33.4 33.4 0 0 1  634.6 167 L 601.2 133.6 A 33.4 33.4 0 0 0 634.6 167" fill="#e2f0ff"/><path d="M 601.2 200.4 A 33.4 33.4 0 0 1  634.6 167 L 601.2 200.4 A 33.4 33.4 0 0 0 634.6 167" fill="#fefeff"/><rect x="668" y="133.6" width="66.8" height="66.8" fill="#ffffff"/><path d="M 668 200.4 A 33.4 33.4 0 0 1  701.4 167 L 668 200.4 A 33.4 33.4 0 0 0 701.4 167" fill="#ab85d1"/><path d="M 701.4 167 A 33.4 33.4 0 0 1  734.8 200.4 L 701.4 167 A 33.4 33.4 0 0 0 734.8 200.4" fill="#d5c2e8"/><rect x="734.8" y="133.6" width="66.8" height="66.8" fill="#ffffff"/><path d="M 734.8 133.6 A 33.4 33.4 0 0 1  768.1999999999999 167 L 734.8 133.6 A 33.4 33.4 0 0 0 768.1999999999999 167" fill="#eaf5ff"/><path d="M 768.2 133.6 A 33.4 33.4 0 0 1  801.6 167 L 768.2 133.6 A 33.4 33.4 0 0 0 801.6 167" fill="#ac86d1"/><path d="M 0 200.4 A 66.8 66.8 0 0 1  66.8 267.2 L 0 200.4 A 66.8 66.8 0 0 0 66.8 267.2" fill="#ceb7e4"/><path d="M 66.8 267.2 A 66.8 66.8 0 0 1  133.6 200.4 L 66.8 267.2 A 66.8 66.8 0 0 0 133.6 200.4" fill="#decfed"/><path d="M 200.4 267.2 A 66.8 66.8 0 0 1  267.2 200.4 L 200.4 267.2 A 66.8 66.8 0 0 0 267.2 200.4" fill="#fdfeff"/><rect x="334" y="200.39999999999998" width="66.8" height="66.8" fill="#ffffff"/><path d="M 334 233.8 A 33.4 33.4 0 0 1  367.4 267.2 L 334 233.8 A 33.4 33.4 0 0 0 367.4 267.2" fill="#78bbfe"/><rect x="400.79999999999995" y="200.39999999999998" width="66.8" height="66.8" fill="#ffffff"/><path d="M 434.2 233.8 A 33.4 33.4 0 0 1  467.59999999999997 200.4 L 434.2 233.8 A 33.4 33.4 0 0 0 467.59999999999997 200.4" fill="#c6e2ff"/><path d="M 434.2 233.8 A 33.4 33.4 0 0 1  467.59999999999997 267.2 L 434.2 233.8 A 33.4 33.4 0 0 0 467.59999999999997 267.2" fill="#eef6ff"/><path d="M 534.4 200.4 A 66.8 66.8 0 0 1  601.1999999999999 267.2 L 534.4 200.4 A 66.8 66.8 0 0 0 601.1999999999999 267.2" fill="#9260c3"/><rect x="668" y="200.39999999999998" width="66.8" height="66.8" fill="#ffffff"/><path d="M 668 200.4 A 33.4 33.4 0 0 1  701.4 233.8 L 668 200.4 A 33.4 33.4 0 0 0 701.4 233.8" fill="#bc9eda"/><path d="M 701.4 200.4 A 33.4 33.4 0 0 1  734.8 233.8 L 701.4 200.4 A 33.4 33.4 0 0 0 734.8 233.8" fill="#bd9eda"/><path d="M 66.8 267.2 A 66.8 66.8 0 0 1  133.6 334 L 66.8 267.2 A 66.8 66.8 0 0 0 133.6 334" fill="#a5d2fe"/><rect x="334" y="267.2" width="66.8" height="66.8" fill="#ffffff"/><path d="M 367.4 300.6 A 33.4 33.4 0 0 1  400.79999999999995 334 L 367.4 300.6 A 33.4 33.4 0 0 0 400.79999999999995 334" fill="#b593d6"/><path d="M 734.8 267.2 A 66.8 66.8 0 0 1  801.5999999999999 334 L 734.8 267.2 A 66.8 66.8 0 0 0 801.5999999999999 334" fill="#d9ecff"/><rect x="133.6" y="334" width="66.8" height="66.8" fill="#ffffff"/><rect x="200.39999999999998" y="334" width="66.8" height="66.8" fill="#ffffff"/><path d="M 200.4 334 A 33.4 33.4 0 0 1  233.8 367.4 L 200.4 334 A 33.4 33.4 0 0 0 233.8 367.4" fill="#e0f0ff"/><path d="M 200.4 400.79999999999995 A 33.4 33.4 0 0 1  233.8 367.4 L 200.4 400.79999999999995 A 33.4 33.4 0 0 0 233.8 367.4" fill="#a379cc"/><rect x="334" y="334" width="66.8" height="66.8" fill="#ffffff"/><path d="M 334 367.4 A 33.4 33.4 0 0 1  367.4 334 L 334 367.4 A 33.4 33.4 0 0 0 367.4 334" fill="#d4c0e7"/><path d="M 400.8 400.8 A 66.8 66.8 0 0 1  467.6 334 L 400.8 400.8 A 66.8 66.8 0 0 0 467.6 334" fill="#9ccdfe"/><rect x="0" y="400.79999999999995" width="66.8" height="66.8" fill="#ffffff"/><rect x="267.2" y="400.79999999999995" width="66.8" height="66.8" fill="#ffffff"/><path d="M 267.2 467.59999999999997 A 33.4 33.4 0 0 1  300.59999999999997 434.2 L 267.2 467.59999999999997 A 33.4 33.4 0 0 0 300.59999999999997 434.2" fill="#a7d3fe"/><path d="M 300.6 467.59999999999997 A 33.4 33.4 0 0 1  334 434.2 L 300.6 467.59999999999997 A 33.4 33.4 0 0 0 334 434.2" fill="#aad4fe"/><path d="M 467.6 400.8 A 66.8 66.8 0 0 1  534.4 467.6 L 467.6 400.8 A 66.8 66.8 0 0 0 534.4 467.6" fill="#9fcffe"/><rect x="734.8" y="400.79999999999995" width="66.8" height="66.8" fill="#ffffff"/><path d="M 734.8 400.8 A 33.4 33.4 0 0 1  768.1999999999999 434.2 L 734.8 400.8 A 33.4 33.4 0 0 0 768.1999999999999 434.2" fill="#9d71c9"/><path d="M 768.2 434.2 A 33.4 33.4 0 0 1  801.6 400.8 L 768.2 434.2 A 33.4 33.4 0 0 0 801.6 400.8" fill="#f1eaf7"/><path d="M 734.8 467.59999999999997 A 33.4 33.4 0 0 1  768.1999999999999 434.2 L 734.8 467.59999999999997 A 33.4 33.4 0 0 0 768.1999999999999 434.2" fill="#a67ece"/><rect x="66.8" y="467.59999999999997" width="66.8" height="66.8" fill="#ffffff"/><path d="M 66.8 501 A 33.4 33.4 0 0 1  100.19999999999999 534.4 L 66.8 501 A 33.4 33.4 0 0 0 100.19999999999999 534.4" fill="#fcfafd"/><path d="M 100.2 501 A 33.4 33.4 0 0 1  133.6 534.4 L 100.2 501 A 33.4 33.4 0 0 0 133.6 534.4" fill="#fcfbfd"/><rect x="334" y="467.59999999999997" width="66.8" height="66.8" fill="#ffffff"/><path d="M 367.4 501 A 33.4 33.4 0 0 1  400.79999999999995 467.6 L 367.4 501 A 33.4 33.4 0 0 0 400.79999999999995 467.6" fill="#77bafe"/><path d="M 334 534.4 A 33.4 33.4 0 0 1  367.4 501 L 334 534.4 A 33.4 33.4 0 0 0 367.4 501" fill="#d5eaff"/><path d="M 367.4 501 A 33.4 33.4 0 0 1  400.79999999999995 534.4 L 367.4 501 A 33.4 33.4 0 0 0 400.79999999999995 534.4" fill="#9565c4"/><path d="M 467.6 467.6 A 66.8 66.8 0 0 1  534.4 534.4 L 467.6 467.6 A 66.8 66.8 0 0 0 534.4 534.4" fill="#d7c4e9"/><rect x="534.4" y="467.59999999999997" width="66.8" height="66.8" fill="#ffffff"/><rect x="734.8" y="467.59999999999997" width="66.8" height="66.8" fill="#ffffff"/><path d="M 768.2 467.6 A 33.4 33.4 0 0 1  801.6 501 L 768.2 467.6 A 33.4 33.4 0 0 0 801.6 501" fill="#afd7fe"/><path d="M 734.8 501 A 33.4 33.4 0 0 1  768.1999999999999 534.4 L 734.8 501 A 33.4 33.4 0 0 0 768.1999999999999 534.4" fill="#ebe2f4"/></g></svg>